<svg class="img-fluid" id="outputsvg" xmlns="http://www.w3.org/2000/svg" style="transform: matrix(1, 0, 0, 1, 0, -1); transform-origin: 50% 50% 0px; cursor: move; max-height: 314.38px; transition: none 0s ease 0s;" width="586" height="588" viewBox="0 0 5860 5880"><g id="ls4RQpfvLN97wHo4kitbOk" fill="rgb(0,0,0)" style="transform: none;"><g><path id="p1As7NVV4d" d="M2860 5843 c0 -16 9 -54 20 -87 19 -55 19 -63 5 -123 -8 -36 -26 -98 -40 -139 -14 -41 -25 -90 -25 -109 0 -33 2 -35 33 -35 17 0 40 7 50 15 13 9 35 12 71 8 l53 -5 6 53 c4 30 7 97 7 149 -1 82 -4 104 -30 163 -43 101 -73 137 -116 137 -31 0 -34 -3 -34 -27z"></path><path id="p1C8FIeIhY" d="M2410 5609 c0 -17 6 -43 14 -57 28 -52 37 -98 42 -207 3 -60 7 -129 10 -152 5 -40 8 -43 34 -43 16 0 50 12 75 27 41 25 45 31 45 66 0 45 -59 246 -90 309 -33 65 -58 88 -97 88 -30 0 -33 -3 -33 -31z"></path><path id="p15j0IJ1CR" d="M3338 5623 c-22 -26 -43 -72 -56 -123 -28 -114 -42 -193 -42 -243 l0 -54 51 -32 c28 -17 64 -31 81 -31 l31 0 -7 184 c-6 155 -5 190 8 221 9 21 16 50 16 66 0 26 -3 29 -33 29 -20 0 -40 -7 -49 -17z"></path><path id="peylzPaUD" d="M3800 5497 c0 -61 -24 -124 -94 -252 l-60 -109 -4 -97 c-4 -94 -3 -98 19 -109 13 -7 40 -26 60 -41 23 -18 49 -29 68 -29 l31 0 0 91 c0 64 9 131 29 223 35 158 43 233 33 306 -7 55 -7 55 -44 58 l-38 3 0 -44z"></path><path id="pXdVXN6kt" d="M1953 5423 c8 -103 15 -132 67 -273 36 -96 50 -144 65 -222 8 -43 65 -39 129 8 l49 36 -6 54 c-7 69 -41 142 -104 225 -63 81 -108 161 -123 217 -10 40 -13 42 -47 42 l-36 0 6 -87z"></path><path id="pKPpdMPP2" d="M4310 5453 c-20 -100 -37 -121 -259 -329 -75 -70 -148 -171 -169 -233 -7 -19 -12 -52 -12 -75 1 -38 4 -44 59 -83 43 -31 68 -43 94 -43 33 0 36 3 58 58 28 70 69 136 163 261 94 125 101 137 126 210 15 47 20 86 20 176 l0 115 -34 0 c-34 0 -35 -1 -46 -57z"></path><path id="p1EnB1r2ZP" d="M1410 5431 c0 -31 5 -41 20 -46 10 -3 37 -26 59 -51 44 -50 81 -147 101 -269 26 -147 71 -269 130 -345 14 -19 30 -40 33 -46 4 -6 -37 11 -90 39 -72 39 -126 78 -220 163 -136 122 -205 164 -271 164 -41 0 -42 -1 -42 -33 0 -26 6 -36 30 -50 38 -23 84 -81 153 -192 68 -110 117 -161 194 -200 32 -16 70 -37 85 -47 45 -31 78 -23 131 30 33 33 47 56 47 75 0 24 4 27 31 27 22 0 48 14 90 48 53 42 59 51 59 84 0 24 -8 46 -24 65 -39 47 -82 132 -141 278 -63 155 -90 201 -150 250 -56 46 -156 95 -194 95 -29 0 -31 -2 -31 -39z"></path><path id="p90IKfQM4" d="M2868 5265 c-20 -14 -44 -25 -52 -25 -9 0 -16 -4 -16 -8 0 -5 -17 -16 -37 -26 -116 -55 -534 -327 -769 -501 -124 -92 -315 -271 -390 -365 -136 -173 -243 -362 -308 -545 -75 -213 -104 -374 -116 -635 -24 -524 -31 -643 -45 -735 -31 -200 -60 -322 -111 -470 -45 -130 -44 -148 4 -179 53 -34 143 -132 179 -196 36 -64 59 -140 69 -226 l6 -62 62 -6 c146 -17 466 -99 665 -172 123 -45 425 -193 561 -276 100 -60 302 -206 315 -228 3 -5 26 -10 51 -10 39 0 52 6 107 53 71 60 174 134 232 168 317 182 447 244 672 320 143 48 365 107 478 128 33 6 85 15 116 21 l57 11 4 84 c6 117 51 207 157 314 42 43 87 81 99 85 32 11 29 77 -9 184 -35 101 -81 286 -103 422 -26 157 -36 291 -46 580 -10 293 -24 432 -64 606 -83 366 -214 611 -471 882 -66 69 -232 213 -293 254 -15 10 -41 28 -58 40 -265 192 -456 315 -712 462 -149 85 -176 91 -234 51z m120 -262 c103 -60 543 -343 632 -408 130 -93 291 -229 376 -317 326 -334 484 -768 484 -1326 0 -226 31 -601 61 -737 5 -22 20 -93 34 -157 14 -65 28 -125 31 -133 4 -10 -16 -43 -55 -90 -64 -77 -133 -207 -154 -289 -7 -27 -19 -53 -27 -57 -8 -4 -78 -22 -155 -39 -161 -36 -419 -108 -527 -146 -172 -62 -470 -225 -675 -367 l-78 -55 -85 62 c-255 183 -559 334 -831 412 -52 14 -101 30 -109 34 -8 4 -89 24 -180 45 -262 58 -233 44 -253 122 -22 87 -79 189 -156 281 l-62 73 15 57 c38 145 83 416 100 597 4 33 11 182 16 330 10 245 31 493 45 515 3 5 10 35 16 67 35 189 176 497 304 663 101 131 371 371 560 497 161 107 158 96 -5 -18 -213 -149 -423 -333 -529 -464 -141 -173 -250 -423 -306 -699 -27 -131 -39 -279 -55 -646 -13 -310 -48 -557 -111 -785 -30 -109 -27 -129 31 -192 61 -66 114 -154 150 -248 l27 -70 179 -46 c472 -122 738 -234 1051 -441 120 -80 171 -108 194 -108 22 0 58 19 128 68 186 131 436 266 603 325 162 57 372 121 527 161 l164 42 21 60 c30 82 85 177 145 252 43 53 51 68 51 105 0 23 -5 58 -10 77 -20 70 -60 270 -79 401 -21 140 -36 351 -46 654 -9 258 -38 432 -104 625 -53 156 -141 322 -236 448 -152 199 -466 447 -920 727 -198 122 -203 125 -248 125 -45 0 -30 8 -365 -198 -73 -45 -131 -78 -128 -74 3 5 47 35 98 67 51 33 95 62 98 65 3 3 21 15 40 27 19 11 84 51 145 87 60 36 111 66 113 66 2 0 24 -12 50 -27z m-495 -1523 c9 -41 16 -76 17 -77 1 -10 70 0 87 12 19 14 25 13 65 -10 46 -27 118 -34 118 -12 1 6 6 46 12 87 6 41 14 134 17 205 l7 130 2 -121 c1 -77 7 -134 16 -155 8 -19 17 -59 21 -90 l7 -56 75 -7 c112 -9 168 -7 181 6 9 9 13 7 18 -5 4 -12 18 -17 46 -17 38 0 40 2 64 55 13 31 24 75 24 98 0 23 3 52 6 65 l7 23 23 -22 c21 -20 24 -32 24 -95 0 -40 5 -84 11 -97 12 -26 59 -47 107 -47 31 0 32 1 32 44 0 52 17 69 38 38 10 -16 25 -22 51 -22 53 0 61 13 61 99 0 99 10 163 21 136 4 -11 8 -32 8 -47 1 -15 7 -33 14 -40 7 -7 16 -21 20 -30 10 -28 75 -24 86 5 7 18 10 14 15 -28 4 -27 9 -58 11 -67 4 -21 -27 -150 -49 -203 -20 -47 -20 -141 0 -225 20 -85 20 -119 0 -155 -9 -16 -16 -40 -16 -52 0 -26 19 -25 -335 -28 -115 -1 -250 -5 -300 -10 -99 -8 -114 -15 -200 -95 -27 -25 -82 -68 -122 -95 l-72 -50 0 -87 0 -88 42 -19 42 -19 -71 -1 c-39 -1 -90 -8 -113 -15 -52 -19 -287 -24 -318 -8 -26 15 -86 15 -132 2 -33 -9 -33 -9 -16 10 10 11 24 20 32 20 8 0 13 13 13 38 0 73 6 79 61 74 l49 -5 0 69 c0 38 9 125 21 194 16 98 19 149 15 235 -7 126 8 217 50 309 16 34 30 90 35 135 5 42 14 101 20 131 6 30 14 114 17 185 l7 130 6 -130 c4 -71 14 -164 22 -205z m717 314 c0 -14 -3 -14 -15 -4 -8 7 -15 14 -15 16 0 2 7 4 15 4 8 0 15 -7 15 -16z"></path><path id="pQwmBe9kQ" d="M4554 5021 c-36 -24 -92 -79 -144 -141 -94 -113 -195 -212 -240 -235 -25 -13 -30 -21 -30 -53 0 -31 7 -45 38 -75 51 -50 85 -49 163 3 96 66 122 98 197 253 48 99 83 158 111 186 30 30 41 49 41 71 0 28 -2 30 -39 30 -28 0 -54 -10 -97 -39z"></path><path id="p176wdDbbV" d="M4955 4741 c-9 -31 -104 -112 -186 -161 -123 -73 -174 -122 -214 -204 -19 -40 -48 -91 -65 -114 -36 -50 -39 -94 -9 -137 11 -16 24 -40 29 -52 7 -18 18 -23 44 -23 44 0 75 35 140 157 47 89 73 123 220 290 79 90 116 160 116 221 0 41 -1 42 -34 42 -26 0 -36 -5 -41 -19z"></path><path id="pTmuL7CAy" d="M820 4665 c0 -75 56 -146 240 -300 62 -52 119 -112 164 -173 66 -89 70 -92 107 -92 36 0 42 4 69 47 43 68 40 101 -16 171 -132 165 -128 161 -297 237 -77 34 -123 62 -160 96 -36 35 -60 49 -79 49 -25 0 -28 -3 -28 -35z"></path><path id="p5ja4n2AW" d="M1411 4488 c0 -18 10 -60 22 -93 20 -55 25 -60 55 -63 18 -2 40 2 48 9 20 16 19 95 -1 103 -9 3 -25 21 -36 41 -17 29 -27 35 -55 35 -32 0 -34 -2 -33 -32z"></path><path id="p15sjbWuZQ" d="M5390 4462 c0 -5 -16 -27 -35 -50 -49 -57 -137 -96 -270 -122 -235 -46 -335 -91 -457 -207 -69 -67 -73 -88 -31 -194 26 -68 27 -69 63 -69 27 0 43 7 61 26 87 96 228 180 429 260 110 43 163 77 215 136 47 54 95 153 95 196 0 30 -2 32 -35 32 -19 0 -35 -4 -35 -8z"></path><path id="pmFnXFreQ" d="M4373 4440 c-40 -18 -43 -22 -43 -58 0 -46 14 -62 53 -62 43 0 107 64 107 108 0 31 -2 32 -37 31 -21 0 -57 -9 -80 -19z"></path><path id="p439N2lXS" d="M388 4394 c-13 -4 -18 -16 -18 -38 0 -32 1 -33 50 -39 84 -10 118 -34 280 -198 85 -86 173 -168 195 -182 81 -49 251 -107 315 -107 33 0 39 4 50 33 6 17 18 47 26 65 8 18 14 49 14 70 l0 37 -67 18 c-103 27 -215 88 -348 188 -66 50 -148 105 -183 121 -56 27 -74 30 -180 33 -64 2 -125 2 -134 -1z"></path><path id="peBVENvgm" d="M5324 3920 c-22 -5 -103 -31 -180 -59 -108 -40 -165 -55 -254 -66 -63 -8 -139 -23 -167 -32 -49 -16 -53 -20 -53 -48 0 -18 5 -57 11 -88 12 -57 12 -57 48 -57 20 0 65 9 99 20 35 11 107 25 160 31 113 13 160 34 275 120 89 67 111 79 185 103 49 17 52 19 52 52 l0 34 -67 -1 c-38 -1 -86 -5 -109 -9z"></path><path id="p16ZwmVCZA" d="M350 3851 l0 -38 53 -6 c37 -4 90 -25 188 -76 155 -80 221 -97 341 -86 56 5 94 2 142 -10 96 -24 105 -21 127 50 29 93 26 112 -18 126 -21 6 -123 15 -228 19 -156 6 -209 12 -295 33 -80 21 -130 27 -207 27 l-103 0 0 -39z"></path><path id="pzzLwOuFU" d="M840 3537 c0 -40 44 -80 147 -133 61 -32 135 -45 147 -26 2 4 8 40 11 80 l8 72 -72 0 c-46 0 -92 7 -128 20 -32 11 -70 20 -85 20 -25 0 -28 -4 -28 -33z"></path><path id="pDkMmBq1x" d="M4748 3504 c-15 -5 -18 -18 -18 -85 l0 -79 33 0 c17 0 64 16 104 36 43 22 92 39 122 42 50 4 51 5 51 37 0 22 -6 35 -17 40 -21 9 -250 16 -275 9z"></path><path id="pXPOjnPxZ" d="M5555 3461 c-13 -22 -127 -44 -265 -51 -159 -8 -170 -11 -280 -74 -76 -44 -130 -66 -207 -86 l-43 -11 0 -89 0 -90 33 0 c96 1 226 48 357 130 40 25 109 54 180 76 170 53 221 72 265 103 33 22 41 33 43 64 l3 37 -40 0 c-22 0 -42 -4 -46 -9z"></path><path id="pXDwtY3xn" d="M230 3388 c0 -29 6 -37 39 -56 62 -35 114 -50 245 -72 143 -25 184 -36 291 -83 96 -41 165 -57 245 -57 59 0 60 0 60 29 0 15 3 55 6 88 l7 60 -86 16 c-47 8 -123 32 -168 52 -70 31 -99 38 -175 42 -50 3 -135 1 -190 -6 -72 -8 -110 -8 -139 0 -22 6 -61 14 -87 16 l-48 5 0 -34z"></path><path id="pMZapoc0x" d="M5040 3093 c-14 -2 -65 -15 -115 -28 -49 -14 -106 -28 -125 -33 -39 -9 -36 3 -32 -152 l2 -70 33 0 c18 0 89 14 157 31 145 36 259 41 404 15 192 -34 335 -16 446 57 45 29 50 36 50 70 0 33 -3 37 -25 37 -14 0 -52 -9 -85 -20 -70 -23 -101 -19 -259 35 -58 19 -138 42 -178 50 -66 14 -212 18 -273 8z"></path><path id="pWIfQfAte" d="M920 3049 c-170 -42 -221 -44 -400 -19 -242 35 -337 22 -460 -60 -48 -32 -55 -41 -58 -73 -3 -35 -2 -37 26 -37 16 0 51 10 78 21 63 28 136 22 269 -25 179 -62 217 -69 355 -64 99 4 150 12 248 38 l122 33 0 108 0 109 -32 -1 c-18 -1 -85 -14 -148 -30z"></path><path id="pYzrxr85x" d="M909 2796 c-36 -13 -107 -49 -158 -79 -71 -43 -133 -69 -264 -112 -203 -66 -251 -94 -255 -148 l-3 -37 40 0 c22 0 42 4 45 9 12 18 128 39 253 45 150 8 181 16 302 85 72 42 116 60 207 86 11 3 24 80 24 143 l0 32 -62 0 c-40 -1 -87 -9 -129 -24z"></path><path id="pBKjQUnm9" d="M4770 2731 c0 -15 3 -55 6 -87 l6 -60 57 -11 c31 -6 101 -30 156 -54 116 -50 191 -59 352 -40 71 8 112 8 148 1 28 -6 71 -14 98 -17 l47 -6 0 35 c0 31 -5 37 -47 60 -58 31 -127 51 -258 73 -126 21 -172 34 -260 74 -86 40 -172 61 -247 61 -57 0 -58 0 -58 -29z"></path><path id="pxkk1yrNl" d="M945 2479 c-27 -10 -67 -19 -87 -19 -36 0 -38 -1 -38 -34 0 -30 4 -34 31 -40 17 -3 74 -6 125 -6 l94 0 0 60 0 60 -37 -1 c-21 0 -60 -9 -88 -20z"></path><path id="ph2blZoHn" d="M4802 2433 l3 -68 41 -6 c22 -4 58 -15 79 -23 20 -9 50 -16 66 -16 26 0 29 3 29 34 0 29 -7 41 -42 69 -67 53 -113 77 -147 77 l-32 0 3 -67z"></path><path id="p1A3WQVYL3" d="M880 2268 c-102 -11 -157 -36 -265 -118 -87 -66 -158 -104 -217 -114 -35 -6 -38 -9 -38 -41 l0 -35 68 0 c98 0 163 14 298 66 65 25 158 52 206 61 48 10 90 23 92 30 3 7 8 46 12 88 l7 75 -39 -1 c-22 -1 -77 -6 -124 -11z"></path><path id="p14t9ldTqB" d="M4833 2224 c-3 -9 0 -49 8 -88 l14 -71 110 -6 c65 -3 157 -16 224 -32 111 -26 292 -37 335 -21 10 4 16 18 16 39 l0 33 -63 4 c-64 4 -105 21 -282 115 l-70 38 -142 3 c-129 4 -144 2 -150 -14z"></path><path id="pvvtTLCGR" d="M4900 1927 c0 -19 8 -58 19 -88 12 -36 17 -72 14 -104 l-4 -50 93 -68 c137 -101 187 -120 331 -125 l117 -4 0 41 c0 36 -3 41 -23 41 -55 0 -145 60 -230 152 -95 105 -188 195 -226 220 -14 10 -41 18 -58 18 -31 0 -33 -2 -33 -33z"></path><path id="pDRQtvEZh" d="M740 1791 c-128 -52 -193 -92 -240 -148 -44 -54 -90 -150 -90 -190 0 -29 3 -33 28 -33 20 0 44 15 88 59 67 65 122 88 274 116 47 9 111 23 143 32 56 15 57 16 57 52 -1 29 -7 41 -35 61 -29 21 -34 31 -35 63 0 36 -1 37 -37 36 -21 0 -90 -22 -153 -48z"></path><path id="pSaemnoNN" d="M4701 1497 c-12 -24 -21 -61 -21 -83 l0 -40 78 -34 c95 -41 173 -90 208 -130 20 -22 36 -30 61 -30 30 0 33 3 33 30 0 66 -66 154 -199 264 -100 83 -129 87 -160 23z"></path><path id="p1POsW7or" d="M991 1428 c-101 -113 -151 -199 -151 -260 0 -37 1 -38 34 -38 28 0 38 6 60 40 27 42 91 92 195 155 l63 38 -5 52 c-3 29 -13 67 -21 84 -14 25 -23 31 -50 31 -30 0 -44 -11 -125 -102z"></path><path id="p1DMnZIyKT" d="M1354 1183 c-21 -70 -95 -203 -136 -245 -36 -37 -48 -57 -48 -80 0 -30 0 -31 45 -25 69 7 141 62 239 179 68 80 86 108 86 133 0 30 -3 32 -51 43 -76 18 -129 16 -135 -5z"></path><path id="p14KAwKTXI" d="M4378 1188 c-46 -10 -48 -12 -48 -43 0 -27 10 -43 58 -87 164 -155 222 -194 307 -204 l55 -7 0 34 c0 28 -6 38 -29 52 -40 23 -108 106 -160 195 l-43 72 -47 -1 c-25 -1 -67 -6 -93 -11z"></path><path id="pqX88HOU1" d="M4038 1098 l-68 -21 0 -38 c0 -25 12 -61 34 -101 19 -35 55 -114 80 -176 55 -135 83 -185 133 -234 59 -57 151 -108 195 -108 35 0 38 2 38 30 0 22 -12 40 -49 75 -62 58 -92 128 -127 299 -27 132 -49 209 -78 264 -14 28 -22 32 -54 31 -20 0 -67 -10 -104 -21z"></path><path id="pCB04ZhFz" d="M1727 1018 c-30 -46 -82 -119 -117 -163 -104 -133 -130 -205 -130 -355 0 -100 4 -110 45 -110 31 0 33 2 37 44 11 93 50 146 243 322 113 103 175 194 175 255 0 36 0 37 -74 63 -114 40 -116 39 -179 -56z"></path><path id="p4swJnZSn" d="M2052 909 c0 -58 -10 -124 -31 -214 -24 -100 -31 -153 -31 -232 l0 -103 35 0 c20 0 37 5 39 13 2 6 10 41 19 77 9 39 40 110 75 174 63 113 88 198 80 281 -3 35 -8 42 -43 59 -22 11 -63 21 -91 24 l-52 4 0 -83z"></path><path id="p52rrnWKM" d="M3663 960 l-43 -19 0 -66 c0 -79 14 -110 110 -245 79 -111 95 -140 111 -203 11 -45 13 -47 46 -47 l36 0 -5 103 c-4 71 -12 120 -28 162 -71 192 -89 245 -95 288 l-7 47 -42 0 c-22 0 -60 -9 -83 -20z"></path><path id="pcDqHpQy2" d="M2464 754 c-4 -20 -3 -94 1 -163 9 -146 8 -218 -6 -242 -5 -10 -9 -36 -9 -59 l0 -41 38 3 c34 3 39 8 68 62 17 32 37 90 44 130 7 39 16 87 21 106 5 19 11 67 15 105 l6 70 -54 33 c-30 18 -68 32 -86 32 -28 0 -32 -4 -38 -36z"></path><path id="pP5V9xt5m" d="M3268 749 c-60 -39 -60 -48 -12 -200 56 -177 73 -221 103 -264 22 -33 33 -41 64 -43 35 -3 37 -2 37 26 0 16 -10 51 -21 78 -17 38 -23 79 -30 200 -4 84 -13 171 -20 193 -11 37 -16 41 -43 41 -18 0 -52 -14 -78 -31z"></path><path id="pbjut6ZaC" d="M2973 539 c-16 -16 -34 -22 -75 -23 l-53 -1 -7 -55 c-21 -179 -1 -281 75 -397 37 -56 45 -63 74 -63 31 0 33 2 33 34 0 19 -9 53 -20 77 -29 64 -25 115 20 253 22 67 40 139 40 159 0 35 -2 37 -33 37 -20 0 -41 -8 -54 -21z"></path></g></g><g id="l6s8Q6bNvO1OKOAa35w4saC" fill="rgb(255,255,255)" style="transform: none;"><g><path id="pVgNfU3LW" d="M0 2940 l0 -2940 2930 0 2930 0 0 2940 0 2940 -2930 0 -2930 0 0 -2940z m2981 2760 c31 -73 32 -78 26 -184 -3 -59 -8 -110 -10 -113 -3 -2 -19 3 -36 11 -29 16 -33 15 -71 -9 -22 -14 -40 -23 -40 -20 0 2 11 38 25 79 31 93 55 192 55 232 0 17 -9 57 -19 90 l-20 59 30 -35 c16 -18 43 -68 60 -110z m-474 -174 c21 -42 93 -260 93 -283 0 -4 -20 -20 -44 -35 l-45 -27 -5 42 c-3 23 -7 92 -10 152 -5 111 -14 155 -43 210 l-16 30 22 -20 c13 -11 34 -42 48 -69z m868 49 c-19 -43 -21 -116 -10 -278 l8 -128 -51 32 c-59 37 -60 41 -37 152 34 157 49 201 83 240 22 24 23 22 7 -18z m476 -156 c0 -47 -11 -125 -30 -210 -22 -99 -31 -162 -31 -229 l0 -92 -37 30 c-21 16 -49 35 -62 42 -22 11 -23 16 -19 81 5 60 12 81 65 176 66 120 93 191 96 252 2 70 18 28 18 -50z m-1837 -20 c9 -25 37 -75 61 -110 104 -148 126 -185 140 -232 8 -27 12 -53 9 -58 -3 -5 -26 -23 -51 -40 -49 -34 -63 -30 -63 23 0 24 -18 83 -84 264 -24 68 -47 176 -45 219 l0 20 9 -20 c4 -11 15 -41 24 -66z m2336 -119 c-18 -69 -54 -134 -135 -240 -94 -124 -136 -191 -164 -262 -13 -32 -26 -58 -29 -58 -4 0 -91 62 -121 87 -2 1 2 22 9 45 19 67 90 166 171 242 222 208 237 227 261 331 l13 60 3 -80 c2 -44 -2 -100 -8 -125z m-2820 116 c53 -28 113 -80 142 -122 15 -22 52 -102 83 -179 56 -138 104 -233 148 -288 l22 -28 -21 -17 c-12 -9 -40 -32 -62 -49 l-40 -33 -40 53 c-72 96 -115 204 -142 362 -20 122 -57 219 -101 269 -22 25 -49 48 -59 51 -11 4 -20 10 -20 15 0 9 29 -2 90 -34z m1542 -212 c256 -147 447 -270 712 -462 17 -12 43 -30 58 -40 61 -41 227 -185 293 -254 257 -271 388 -516 471 -882 40 -174 54 -313 64 -606 10 -289 20 -423 46 -580 22 -136 68 -321 103 -422 37 -103 38 -115 9 -124 -12 -4 -57 -42 -99 -85 -106 -107 -151 -197 -157 -314 l-4 -84 -57 -11 c-31 -6 -83 -15 -116 -21 -113 -21 -335 -80 -478 -128 -225 -76 -355 -138 -672 -320 -58 -34 -161 -108 -232 -168 -62 -52 -86 -63 -98 -43 -13 22 -215 168 -315 228 -136 83 -438 231 -561 276 -199 73 -519 155 -665 172 l-62 6 -6 62 c-10 86 -33 162 -69 226 -36 64 -126 162 -179 196 l-37 24 34 97 c73 211 121 466 130 695 3 73 8 167 11 208 3 41 9 170 14 285 12 276 40 433 116 650 65 183 172 372 308 545 75 94 266 273 390 365 235 174 653 446 769 501 20 10 37 21 37 26 0 4 7 8 16 8 8 0 32 11 52 25 20 14 37 25 38 25 1 0 62 -34 136 -76z m1547 -195 c-28 -28 -63 -87 -111 -186 -76 -155 -100 -187 -199 -254 l-61 -41 -39 38 c-21 21 -39 42 -39 46 0 4 13 14 30 23 45 23 146 122 240 235 52 62 108 117 144 141 75 50 87 50 35 -2z m-3363 -15 c23 -14 96 -73 162 -133 92 -83 142 -119 221 -161 l102 -53 -47 -48 c-47 -48 -47 -48 -73 -31 -14 10 -52 31 -84 47 -77 39 -126 90 -194 200 -75 120 -100 153 -148 188 -38 28 -39 29 -11 23 16 -4 49 -18 72 -32z m3721 -316 c-13 -29 -55 -88 -93 -131 -147 -167 -173 -201 -225 -297 -29 -55 -66 -112 -81 -127 -26 -25 -28 -25 -35 -7 -3 10 -17 35 -31 56 l-23 36 30 43 c17 23 47 75 66 115 40 82 91 131 214 204 84 50 177 131 187 163 4 12 9 17 11 10 3 -7 -6 -36 -20 -65z m-3920 -133 c170 -76 165 -72 298 -238 l47 -59 -29 -46 c-16 -26 -34 -47 -41 -47 -7 0 -43 40 -80 90 -43 57 -102 119 -162 170 -129 108 -195 175 -219 224 -12 22 -21 42 -21 44 0 1 22 -18 50 -44 34 -32 82 -61 157 -94z m437 -99 c21 -23 26 -34 19 -45 -17 -27 -27 -17 -50 49 -12 36 -17 56 -10 45 7 -10 25 -33 41 -49z m2930 -35 c-29 -30 -42 -37 -51 -29 -21 17 -15 28 30 48 62 27 65 24 21 -19z m973 -28 c-57 -109 -130 -170 -277 -227 -206 -81 -302 -138 -412 -244 -26 -25 -49 -44 -52 -41 -2 2 -16 35 -31 73 l-27 68 48 50 c116 118 231 172 469 218 132 25 222 66 267 120 18 21 34 37 36 35 2 -2 -8 -25 -21 -52z m-4722 -32 c33 -16 114 -70 180 -120 133 -101 245 -161 348 -188 51 -14 67 -22 63 -33 -10 -32 -45 -123 -50 -127 -6 -6 -134 32 -201 59 -89 37 -128 68 -285 227 -88 89 -171 165 -193 175 -20 9 -60 20 -89 23 -85 10 -27 24 77 18 71 -4 102 -11 150 -34z m4780 -441 c-11 -5 -45 -19 -75 -30 -30 -11 -91 -47 -135 -80 -120 -92 -173 -115 -287 -129 -53 -6 -125 -20 -160 -31 -34 -11 -66 -20 -69 -20 -6 0 -32 112 -26 115 18 12 104 35 146 39 139 16 196 29 325 77 142 52 189 64 261 67 32 1 36 -1 20 -8z m-4801 -61 c115 -27 152 -31 296 -34 91 -1 181 -7 201 -14 l37 -11 -17 -56 c-10 -30 -21 -55 -24 -55 -4 0 -33 5 -65 12 -33 6 -91 9 -137 6 -118 -8 -172 6 -325 84 -97 51 -150 72 -187 76 -29 3 -53 10 -53 14 0 20 146 8 274 -22z m397 -332 l67 -1 -5 -40 c-3 -23 -9 -45 -14 -50 -11 -13 -142 55 -194 99 l-40 35 60 -22 c37 -13 85 -21 126 -21z m3943 -34 c15 -8 8 -11 -32 -15 -30 -3 -80 -19 -119 -39 -38 -19 -70 -35 -73 -36 -3 -2 -6 19 -8 46 -2 40 0 50 15 55 29 8 198 0 217 -11z m611 -33 c-22 -35 -110 -74 -305 -134 -64 -19 -142 -52 -175 -72 -134 -82 -207 -114 -297 -127 l-38 -6 0 59 0 59 43 11 c77 20 131 42 207 86 110 63 121 66 280 74 138 7 252 29 265 51 4 5 11 9 16 9 6 0 7 -5 4 -10z m-5260 -62 c28 -7 80 -7 177 2 166 15 211 10 318 -36 45 -20 120 -43 167 -51 65 -12 83 -19 79 -30 -4 -8 -6 -35 -6 -59 0 -42 -1 -44 -30 -44 -51 0 -132 21 -215 57 -107 47 -148 58 -293 83 -130 22 -208 46 -257 81 -28 20 -28 21 -5 14 14 -3 43 -11 65 -17z m4938 -313 c40 -8 126 -33 192 -55 154 -52 220 -59 300 -32 33 11 61 19 63 18 1 -2 -22 -19 -52 -39 -114 -76 -220 -92 -392 -61 -50 9 -144 17 -214 17 -108 0 -142 -4 -249 -31 -69 -18 -126 -31 -127 -29 -1 1 -4 36 -5 77 l-2 74 34 8 c19 5 75 19 124 33 146 39 215 44 328 20z m-4213 -84 l0 -78 -122 -33 c-217 -57 -316 -53 -528 21 -169 60 -274 67 -361 25 l-34 -17 35 30 c49 42 132 81 200 93 49 10 87 7 227 -12 202 -27 295 -24 463 19 63 16 116 29 118 30 1 1 2 -34 2 -78z m-4 -212 c-3 -17 -6 -42 -6 -56 0 -13 -6 -25 -12 -27 -7 -2 -38 -12 -68 -21 -30 -9 -94 -39 -141 -66 -121 -69 -151 -77 -301 -84 -126 -6 -242 -27 -254 -46 -3 -5 -10 -9 -16 -9 -22 0 23 37 75 62 28 14 118 46 198 72 109 34 168 59 239 102 102 61 206 103 259 104 32 0 33 -1 27 -31z m3849 -44 c33 -7 92 -28 130 -46 88 -40 134 -53 260 -74 132 -22 221 -49 270 -81 22 -14 31 -23 20 -19 -72 23 -136 27 -271 15 -78 -7 -155 -10 -173 -7 -17 4 -75 25 -128 48 -54 23 -124 47 -155 53 -53 10 -58 13 -58 37 0 15 -3 41 -6 58 -6 29 -5 31 22 31 16 0 56 -7 89 -15z m-3875 -275 l0 -30 -72 1 c-84 1 -153 16 -83 18 22 1 63 10 90 20 66 25 65 25 65 -9z m3913 -52 l42 -38 -39 16 c-22 9 -58 19 -80 23 -39 6 -41 8 -44 44 l-3 38 40 -23 c23 -13 60 -40 84 -60z m-3948 -175 c-13 -83 -7 -77 -102 -95 -48 -10 -142 -38 -208 -63 -126 -48 -219 -69 -276 -63 l-34 4 40 8 c64 13 134 50 220 116 109 83 163 107 260 115 44 4 82 9 84 11 14 14 21 -1 16 -33z m4140 -35 c28 -13 84 -43 125 -66 83 -45 175 -73 217 -66 21 3 24 2 13 -6 -29 -19 -163 -11 -281 17 -67 15 -159 29 -224 32 l-110 6 -11 52 c-6 29 -9 55 -5 58 3 4 56 5 116 3 93 -4 118 -8 160 -30z m-98 -339 c32 -31 95 -97 140 -147 85 -92 175 -152 230 -152 12 0 23 -5 23 -11 0 -21 -168 -5 -233 22 -44 18 -192 118 -247 166 -3 3 3 11 13 18 17 12 17 17 -12 100 -17 48 -31 89 -31 92 0 11 61 -35 117 -88z m-4160 -59 c-10 -25 -9 -32 3 -40 31 -18 79 -55 80 -61 0 -9 -97 -35 -200 -54 -142 -26 -204 -51 -265 -107 -30 -27 -55 -46 -55 -41 0 14 68 125 93 152 41 44 112 86 227 132 63 26 118 48 122 48 3 1 1 -13 -5 -29z m4060 -444 c24 -28 54 -68 65 -90 l20 -41 -33 34 c-42 44 -116 90 -211 131 -43 18 -78 38 -78 44 0 5 9 29 21 53 l21 43 75 -62 c41 -35 95 -85 120 -112z m-3814 137 c35 -69 32 -78 -35 -119 -103 -62 -167 -113 -195 -155 -38 -57 -41 -39 -5 33 18 37 69 105 123 166 50 56 93 102 95 102 2 0 10 -12 17 -27z m330 -316 l48 -12 -85 -102 c-81 -97 -145 -152 -199 -172 -19 -7 -14 1 22 38 40 41 114 176 135 244 6 20 15 21 79 4z m3074 -69 c26 -45 73 -108 104 -140 64 -65 56 -73 -23 -27 -53 31 -89 61 -202 168 l-59 56 49 12 c80 18 79 19 131 -69z m-371 -30 c29 -55 51 -132 78 -264 35 -171 65 -241 126 -298 27 -26 46 -46 41 -46 -16 0 -128 74 -164 108 -50 49 -78 99 -133 234 -25 62 -61 141 -80 176 -18 34 -34 66 -34 71 0 7 117 48 142 50 4 1 15 -13 24 -31z m-2221 -57 c-22 -58 -82 -135 -170 -215 -193 -177 -232 -229 -243 -323 -6 -56 -18 -39 -21 30 -4 118 30 204 129 332 35 44 87 117 116 161 l54 81 70 -25 c56 -20 70 -28 65 -41z m219 -66 c20 -9 39 -22 43 -30 14 -37 -20 -146 -79 -252 -35 -63 -66 -134 -75 -173 -24 -98 -28 -101 -31 -23 -2 53 5 107 29 210 19 84 32 169 33 216 1 87 -1 86 80 52z m1601 -32 c4 -27 22 -88 40 -138 18 -49 43 -117 55 -150 12 -34 24 -92 26 -135 l4 -75 -18 55 c-25 74 -34 89 -112 200 -84 118 -110 169 -110 215 0 33 4 38 43 55 23 11 47 20 53 20 7 0 15 -21 19 -47z m-1177 -194 c23 -15 23 -18 2 -129 -5 -25 -14 -74 -21 -110 -12 -66 -58 -172 -80 -186 -9 -5 -10 0 -5 17 21 66 25 141 14 260 -6 69 -8 143 -4 163 l7 37 32 -19 c18 -10 42 -25 55 -33z m788 -162 c6 -143 16 -202 40 -249 9 -17 11 -27 4 -23 -18 11 -59 82 -79 138 -23 61 -85 258 -86 270 0 4 20 21 45 37 l45 30 12 -36 c7 -20 15 -95 19 -167z m-385 -151 c-49 -148 -55 -240 -21 -315 11 -24 19 -45 17 -47 -8 -9 -88 129 -107 186 -19 57 -21 77 -15 160 3 52 11 99 16 104 5 6 17 2 31 -11 l23 -22 45 39 c25 21 46 37 48 35 2 -2 -15 -60 -37 -129z"></path><path id="phAMDbCug" d="M2810 5004 c-69 -42 -141 -86 -160 -97 -19 -12 -39 -25 -45 -30 -5 -4 -59 -40 -120 -79 -315 -204 -418 -282 -598 -457 -133 -129 -182 -189 -252 -306 -96 -161 -188 -390 -214 -528 -6 -32 -13 -62 -16 -67 -14 -22 -35 -270 -45 -515 -16 -423 -40 -611 -122 -953 l-22 -92 21 -15 c70 -49 191 -246 214 -349 14 -65 -12 -53 249 -111 91 -21 172 -41 180 -45 8 -4 57 -20 109 -34 280 -80 574 -228 854 -428 l98 -71 22 20 c128 113 554 354 755 427 108 38 366 110 527 146 77 17 147 35 155 39 8 4 20 30 27 57 28 110 126 276 206 347 19 17 19 22 8 70 -48 196 -77 339 -91 442 -23 176 -40 433 -40 607 0 406 -81 735 -251 1023 -129 218 -323 415 -619 627 -135 97 -690 450 -703 448 -1 -1 -58 -35 -127 -76z m187 -72 c434 -258 778 -506 956 -689 100 -103 139 -153 209 -265 163 -265 240 -550 253 -943 17 -500 41 -708 126 -1061 l12 -51 -52 -64 c-62 -76 -117 -171 -147 -253 l-21 -60 -164 -42 c-155 -40 -365 -104 -527 -161 -167 -59 -417 -194 -604 -326 l-97 -68 -163 108 c-314 208 -580 320 -1052 442 l-179 46 -27 70 c-36 94 -89 182 -151 249 l-50 55 19 73 c64 234 99 477 112 788 16 367 28 515 55 646 56 276 165 526 306 699 150 186 451 428 789 636 74 46 178 109 230 141 52 32 100 58 107 58 7 0 34 -13 60 -28z"></path><path id="pm3UlNKMh" d="M2416 3823 c13 -27 11 -208 -4 -288 -7 -38 -17 -102 -21 -141 -5 -41 -20 -97 -35 -129 -14 -32 -35 -100 -46 -151 -17 -80 -18 -105 -8 -176 9 -73 7 -102 -15 -243 -13 -88 -22 -177 -20 -197 l5 -38 -33 6 c-19 3 -42 7 -51 9 -12 2 -18 -3 -18 -15 0 -10 -10 -25 -22 -34 -22 -15 -22 -16 -5 -29 21 -17 23 -47 3 -47 -20 0 -83 -78 -91 -113 -14 -54 42 -151 98 -170 24 -9 22 -4 -14 34 -27 29 -30 38 -24 73 8 51 28 73 77 86 29 8 48 7 81 -4 57 -19 304 -14 366 8 49 18 117 21 155 6 42 -16 52 -50 34 -116 -16 -55 -16 -55 5 -37 32 28 60 100 53 137 -8 41 -48 84 -103 108 -23 10 -43 23 -43 29 0 6 16 17 35 25 40 16 39 26 -5 44 -16 7 -30 18 -30 24 0 6 33 33 73 61 39 27 95 70 122 95 87 80 101 87 200 95 50 4 209 8 355 9 146 1 271 5 278 10 7 4 11 15 8 23 -3 8 4 35 15 61 23 51 23 49 -13 244 -11 63 -10 71 14 145 45 134 51 174 39 263 -6 45 -15 89 -21 100 -11 21 3 104 22 127 17 21 1 15 -25 -9 -33 -31 -44 -55 -52 -111 -8 -52 -21 -69 -32 -40 -4 10 -11 21 -16 24 -14 10 -28 84 -34 177 l-5 82 -49 0 c-46 0 -59 -7 -42 -24 23 -22 32 -97 26 -220 -6 -152 -18 -179 -56 -135 -29 35 -50 41 -76 23 -16 -12 -21 -26 -21 -61 0 -39 -2 -44 -17 -38 -10 4 -25 9 -34 12 -9 3 -22 16 -28 29 -13 29 -14 123 -2 143 6 10 -2 25 -28 51 -80 83 -96 110 -96 164 l0 51 -57 3 c-37 2 -58 -1 -58 -8 0 -17 27 -65 45 -80 9 -8 28 -37 43 -64 33 -66 32 -153 -3 -232 -13 -30 -27 -54 -30 -54 -3 0 -20 16 -37 34 l-32 35 -19 -31 c-18 -31 -19 -31 -85 -24 -37 3 -79 6 -93 6 -25 0 -27 4 -34 58 -4 31 -13 72 -21 91 -9 22 -14 73 -14 152 l0 119 -50 0 c-54 0 -61 -9 -34 -48 12 -18 14 -42 11 -115 -4 -91 -24 -257 -31 -265 -5 -5 -65 26 -95 50 -24 18 -25 18 -67 -7 -24 -14 -44 -25 -44 -23 -1 2 -8 37 -17 78 -9 41 -17 131 -18 200 l-3 125 -47 3 c-43 3 -47 1 -39 -15z"></path></g></g></svg>